<svg width="30" height="45" viewBox="0 0 30 45" fill="none" xmlns="http://www.w3.org/2000/svg">
<path d="M3.86806 0.529796L29.3033 20.9993C29.75 21.3588 30 21.841 30 22.3431C30 22.8452 29.75 23.3274 29.3033 23.6869L3.86806 44.1641C3.65996 44.3318 3.41116 44.465 3.13633 44.556C2.86151 44.647 2.56623 44.6939 2.26793 44.6939C1.96963 44.6939 1.67435 44.647 1.39952 44.556C1.1247 44.465 0.875893 44.3318 0.667797 44.1641C0.239677 43.8202 -7.15256e-07 43.3587 -7.15256e-07 42.878C-7.15256e-07 42.3974 0.239677 41.9358 0.667797 41.5919L24.5863 22.3431L0.667797 3.0981C0.241146 2.75444 0.00239437 2.29367 0.00239437 1.81395C0.00239437 1.33423 0.241146 0.873464 0.667797 0.529796C0.875893 0.36213 1.1247 0.228868 1.39952 0.137874C1.67435 0.0468803 1.96963 0 2.26793 0C2.56623 0 2.86151 0.0468803 3.13633 0.137874C3.41116 0.228868 3.65996 0.36213 3.86806 0.529796Z" fill="#F5EEE4"/>
</svg>
