<svg width="197" height="197" viewBox="0 0 197 197" fill="none" xmlns="http://www.w3.org/2000/svg">
<path d="M39.916 111V85.08H57.16V87.168H42.364V96.528H55.72V98.616H42.364V108.912H57.52V111H39.916ZM68.0798 102.936L62.2838 111H59.6558L66.8198 101.352L60.2318 92.352H62.8958L68.0438 99.768L73.3358 92.352H76.0718L69.3398 101.352L76.3238 111H73.7318L68.0798 102.936ZM82.0118 101.748C82.0118 102.804 82.1558 103.812 82.4438 104.772C82.7318 105.708 83.1398 106.536 83.6678 107.256C84.2198 107.952 84.8798 108.516 85.6478 108.948C86.4398 109.356 87.3278 109.56 88.3118 109.56C89.4158 109.56 90.3758 109.344 91.1918 108.912C92.0318 108.456 92.7158 107.844 93.2438 107.076C93.7718 106.308 94.1558 105.42 94.3958 104.412C94.6358 103.38 94.7318 102.276 94.6838 101.1C94.6838 99.924 94.5158 98.892 94.1798 98.004C93.8678 97.092 93.4238 96.324 92.8478 95.7C92.2718 95.076 91.5998 94.608 90.8318 94.296C90.0638 93.96 89.2238 93.792 88.3118 93.792C87.3038 93.792 86.4038 93.996 85.6118 94.404C84.8198 94.812 84.1598 95.376 83.6318 96.096C83.1038 96.792 82.6958 97.632 82.4078 98.616C82.1438 99.576 82.0118 100.62 82.0118 101.748ZM82.0118 118.344H79.8518V92.352H82.0118V95.628H82.0838C82.3958 95.028 82.7918 94.488 83.2718 94.008C83.7758 93.528 84.3158 93.132 84.8918 92.82C85.4918 92.508 86.1038 92.268 86.7278 92.1C87.3518 91.932 87.9638 91.848 88.5638 91.848C90.0758 91.848 91.3598 92.1 92.4158 92.604C93.4718 93.108 94.3358 93.804 95.0078 94.692C95.7038 95.556 96.2078 96.588 96.5198 97.788C96.8318 98.988 96.9878 100.272 96.9878 101.64C96.9878 102.936 96.8198 104.184 96.4838 105.384C96.1478 106.584 95.6318 107.64 94.9358 108.552C94.2638 109.44 93.3998 110.16 92.3438 110.712C91.3118 111.24 90.0878 111.504 88.6718 111.504C87.3518 111.504 86.0798 111.216 84.8558 110.64C83.6558 110.04 82.7078 109.164 82.0118 108.012V118.344ZM101.932 111V85.08H104.092V111H101.932ZM117.004 111.504C115.804 111.48 114.676 111.264 113.62 110.856C112.588 110.448 111.676 109.836 110.884 109.02C110.116 108.204 109.504 107.184 109.048 105.96C108.592 104.736 108.364 103.308 108.364 101.676C108.364 100.308 108.544 99.036 108.904 97.86C109.264 96.66 109.804 95.616 110.524 94.728C111.244 93.84 112.144 93.144 113.224 92.64C114.304 92.112 115.564 91.848 117.004 91.848C118.468 91.848 119.74 92.112 120.82 92.64C121.9 93.144 122.8 93.84 123.52 94.728C124.24 95.592 124.768 96.624 125.104 97.824C125.464 99.024 125.644 100.308 125.644 101.676C125.644 103.164 125.44 104.508 125.032 105.708C124.624 106.908 124.036 107.94 123.268 108.804C122.524 109.668 121.612 110.34 120.532 110.82C119.476 111.276 118.3 111.504 117.004 111.504ZM123.34 101.676C123.34 100.572 123.22 99.54 122.98 98.58C122.74 97.62 122.368 96.792 121.864 96.096C121.36 95.376 120.712 94.812 119.92 94.404C119.128 93.996 118.156 93.792 117.004 93.792C115.876 93.792 114.904 94.02 114.088 94.476C113.296 94.908 112.648 95.496 112.144 96.24C111.64 96.96 111.268 97.8 111.028 98.76C110.788 99.696 110.668 100.668 110.668 101.676C110.668 102.828 110.8 103.896 111.064 104.88C111.352 105.84 111.76 106.668 112.288 107.364C112.816 108.06 113.476 108.6 114.268 108.984C115.06 109.368 115.972 109.56 117.004 109.56C118.132 109.56 119.092 109.344 119.884 108.912C120.7 108.456 121.36 107.856 121.864 107.112C122.368 106.368 122.74 105.528 122.98 104.592C123.22 103.656 123.34 102.684 123.34 101.676ZM131.86 111H129.7V92.352H131.86V95.844H131.932C132.532 94.356 133.3 93.324 134.236 92.748C135.196 92.148 136.456 91.848 138.016 91.848V94.188C136.792 94.164 135.784 94.356 134.992 94.764C134.2 95.172 133.564 95.724 133.084 96.42C132.628 97.116 132.304 97.944 132.112 98.904C131.944 99.84 131.86 100.824 131.86 101.856V111ZM154.447 100.38C154.447 99.468 154.315 98.616 154.051 97.824C153.811 97.008 153.439 96.312 152.935 95.736C152.455 95.136 151.843 94.668 151.099 94.332C150.355 93.972 149.503 93.792 148.543 93.792C147.583 93.792 146.731 93.972 145.987 94.332C145.267 94.692 144.643 95.172 144.115 95.772C143.611 96.372 143.203 97.068 142.891 97.86C142.579 98.652 142.375 99.492 142.279 100.38H154.447ZM142.279 102.18C142.279 103.188 142.411 104.148 142.675 105.06C142.939 105.948 143.323 106.728 143.827 107.4C144.355 108.048 145.015 108.576 145.807 108.984C146.599 109.368 147.511 109.56 148.543 109.56C149.959 109.56 151.171 109.188 152.179 108.444C153.187 107.7 153.859 106.644 154.195 105.276H156.607C156.343 106.164 155.995 106.992 155.563 107.76C155.131 108.504 154.591 109.164 153.943 109.74C153.295 110.292 152.527 110.724 151.639 111.036C150.751 111.348 149.719 111.504 148.543 111.504C147.055 111.504 145.771 111.252 144.691 110.748C143.611 110.244 142.723 109.56 142.027 108.696C141.331 107.808 140.815 106.776 140.479 105.6C140.143 104.4 139.975 103.116 139.975 101.748C139.975 100.38 140.167 99.096 140.551 97.896C140.959 96.696 141.523 95.652 142.243 94.764C142.987 93.852 143.887 93.144 144.943 92.64C145.999 92.112 147.199 91.848 148.543 91.848C151.111 91.848 153.127 92.736 154.591 94.512C156.055 96.264 156.775 98.82 156.751 102.18H142.279Z" fill="white"/>
<circle cx="98.5" cy="98.5" r="98" stroke="#F5EEE4"/>
</svg>
