<svg width="55" height="26" viewBox="0 0 55 26" fill="none" xmlns="http://www.w3.org/2000/svg">
<path d="M0 13.1133C0 12.679 0.181082 12.2624 0.503411 11.9552C0.825739 11.6481 1.26291 11.4755 1.71875 11.4755H53.2812C53.7371 11.4755 54.1743 11.6481 54.4966 11.9552C54.8189 12.2624 55 12.679 55 13.1133C55 13.5477 54.8189 13.9643 54.4966 14.2714C54.1743 14.5786 53.7371 14.7511 53.2812 14.7511H1.71875C1.26291 14.7511 0.825739 14.5786 0.503411 14.2714C0.181082 13.9643 0 13.5477 0 13.1133Z" fill="#F5EEE4"/>
<path d="M27.5 24.0321C27.5 23.5977 27.5905 23.1811 27.7517 22.874C27.9129 22.5668 28.1315 22.3943 28.3594 22.3943H54.1406C54.3685 22.3943 54.5871 22.5668 54.7483 22.874C54.9095 23.1811 55 23.5977 55 24.0321C55 24.4665 54.9095 24.8831 54.7483 25.1902C54.5871 25.4974 54.3685 25.6699 54.1406 25.6699H28.3594C28.1315 25.6699 27.9129 25.4974 27.7517 25.1902C27.5905 24.8831 27.5 24.4665 27.5 24.0321Z" fill="#F5EEE4"/>
<path d="M0 2.19461C0 1.76023 0.0905412 1.34365 0.251705 1.0365C0.412869 0.729347 0.631455 0.556793 0.859375 0.556793H26.6406C26.8685 0.556793 27.0871 0.729347 27.2483 1.0365C27.4095 1.34365 27.5 1.76023 27.5 2.19461C27.5 2.62898 27.4095 3.04557 27.2483 3.35272C27.0871 3.65987 26.8685 3.83242 26.6406 3.83242H0.859375C0.631455 3.83242 0.412869 3.65987 0.251705 3.35272C0.0905412 3.04557 0 2.62898 0 2.19461Z" fill="#F5EEE4"/>
</svg>
