<svg width="20" height="20" viewBox="0 0 20 20" fill="none" xmlns="http://www.w3.org/2000/svg">
<path d="M17.8571 1.25H2.14286C0.959821 1.25 0 2.08984 0 3.125V16.875C0 17.9102 0.959821 18.75 2.14286 18.75H17.8571C19.0402 18.75 20 17.9102 20 16.875V3.125C20 2.08984 19.0402 1.25 17.8571 1.25ZM15.6741 7.45313C15.683 7.5625 15.683 7.67578 15.683 7.78516C15.683 11.1719 12.7366 15.0742 7.35268 15.0742C5.69196 15.0742 4.15179 14.6523 2.85714 13.9258C3.09375 13.9492 3.32143 13.957 3.5625 13.957C4.93304 13.957 6.19196 13.5508 7.19643 12.8633C5.91071 12.8398 4.83036 12.1016 4.45982 11.0859C4.91071 11.1445 5.31696 11.1445 5.78125 11.0391C4.44196 10.8008 3.4375 9.76953 3.4375 8.52344V8.49219C3.82589 8.68359 4.28125 8.80078 4.75893 8.81641C4.35733 8.58267 4.02812 8.26557 3.80066 7.89342C3.5732 7.52126 3.45457 7.10563 3.45536 6.68359C3.45536 6.20703 3.59821 5.76953 3.85268 5.39062C5.29464 6.94531 7.45982 7.96094 9.88839 8.07031C9.47321 6.33203 10.9598 4.92188 12.7455 4.92188C13.5893 4.92188 14.3482 5.23047 14.8839 5.73047C15.5446 5.62109 16.1786 5.40625 16.7411 5.11328C16.5223 5.70703 16.0625 6.20703 15.4554 6.52344C16.0446 6.46875 16.6161 6.32422 17.1429 6.125C16.7455 6.63672 16.2455 7.08984 15.6741 7.45313Z" fill="#F5EEE4" fill-opacity="0.7"/>
</svg>
